<svg id="logo" xmlns="http://www.w3.org/2000/svg" viewBox="0 0 545.35 395.29"><defs><style>.cls-1{fill:#0061aa;}.cls-2{fill:#ee3b33;}</style></defs><title>logo</title><g id="flag"><circle class="cls-1" cx="169.2" cy="126.1" r="45.25"/><path class="cls-2" d="M214.43,133.61A45.25,45.25,0,0,0,130,110c-2.9,9.68-4.62,27,17.91,31.35,6.95,1.35,10.78-.65,25.74-12,17.9-13.56,44.22,3.14,32.89,28.78A45,45,0,0,0,214.43,133.61Z" transform="translate(0 -6.46)"/></g><g id="KoreanBop"><path d="M0,273.82c11.67,3.26,28.77-52.75,32.41-81.84,2.7-21.53,62.26-8.29,119.41,27.73,18.18,11.47,42.65-4.77,45.21-21.47,0,0-22.1,4.9-34.36,3.2-15.34-2.36-79.95-60.52-106.9-49.31C76,143.72,146.61,31.55,149.9,13.73,151.7,4,144,0,119.53,28.41,110.1,39.39,55.17,114,39,131.81c4.74-30.68,1.66-63.75,5.94-89.4C47.14,29.18,55,3.59,42.18,10c-17.9,8.87-23.42,34.38-24.39,49.71C16,87.32,5.69,256.61,0,273.82Z" transform="translate(0 -6.46)"/><path d="M235.85,182.71c3.85,1.84,13.83-15.17,10.46-44.35-.4-6.36-.67-12.73-.55-19,0-14,10.11-21.52,14.15-24.06A66.2,66.2,0,0,1,272.79,89a41.9,41.9,0,0,1,6.66-1.85c.55-.12,3.21-.37,3.59-.41a37.23,37.23,0,0,0,6.35-1.84,7.66,7.66,0,0,0,1.73-1.34,6,6,0,0,0,1.6-3,6,6,0,0,0-.44-3.66,8,8,0,0,0-2.73-3.1,14.57,14.57,0,0,0-2.37-1.34c-.76-.35-1.49-.61-2.21-.86-.36-.12-.72-.24-1.07-.34l-.53-.15c-.16,0-.47-.11-.69-.17a16.89,16.89,0,0,0-5.19-.2,39.06,39.06,0,0,0-8.41,2,70.22,70.22,0,0,0-7.56,3.14,75.91,75.91,0,0,0-13.86,8.51c-.57.45-1.13.93-1.69,1.42.1-3.58.23-7.25.12-11,0-1.34-.11-2.71-.28-4.13-.08-.72-.19-1.44-.35-2.22a11.62,11.62,0,0,0-.82-2.55,6.37,6.37,0,0,0-1-1.63A4.65,4.65,0,0,0,238.22,63l-.55.24c-.16.09-.29.18-.44.28a6.52,6.52,0,0,0-.79.6,7.28,7.28,0,0,0-1.07,1.23,7.11,7.11,0,0,0-.41.6l-.32.57a15.17,15.17,0,0,0-1,2.2,43.13,43.13,0,0,0-1.84,8.13c-.37,2.65-.61,5.28-.79,7.9s-.29,5.22-.36,7.83,0,5.2,0,7.79C230.77,105.6,239.53,163.25,235.85,182.71Z" transform="translate(0 -6.46)"/><path d="M375.63,126.28c-5,3.2-32.86,14.23-46.34,11.22-11.49-2.56-16.06-21.31-5.94-24.09,79.5-21.8,39.23-56.17,12.32-48.81-35.52,9.71-32.57,36.94-30.93,51s6.39,30.19,22.19,33.37C354.72,153,373.79,139.2,375.63,126.28Zm-39.78-49c16.68-6.55,21.62-1.22,22.43,6.53.53,5.1-37,25.28-41.36,17.11C315.24,97.74,314.66,85.57,335.85,77.25Z" transform="translate(0 -6.46)"/><path d="M461.7,91.66c-3,5.37-12.4,37.5-26.57,22.64-11.32-11.88-.1-43.66-14-48.2-35.34-11.54-47.48,64.39-28.26,68.23s31.3-17,31.3-17,7.31,8.34,16.67,10C461.31,130.92,463,101.55,461.7,91.66ZM419,104.33c-4.54,13.21-13.09,17-20.32,14.55s-6.06-12.57-2.87-23.88C398,87.38,406.74,77.53,414,80S423.55,91.13,419,104.33Z" transform="translate(0 -6.46)"/><path d="M470.25,51.9s-1,81.37,3.83,82.86c5.82,1,7.84-8.76,8.88-23.35,1.27-17.84,12.16-34,18.92-18.5,6.49,14.88,2.79,48.11,31.7,33.32,11.64-7.06,11.77-27.72,11.77-27.72s-4.94,13.24-16.88,17.54-14.86-51.44-34-51.25C477.76,65,480,86.42,480,86.42c-.16-1.14-2.68-33.69-5.45-35C470.71,49.64,470.25,51.9,470.25,51.9Z" transform="translate(0 -6.46)"/><path d="M415.31,182.77s-21.64-10.56-20.58-11.5c0,0,3.66-8,2.17-7.7,0,0-102.79,27.7-138.79,28.7,1,2,4.92,5.45,6.86,7.07,4.8,4-3.86,7.93-.86,8.93Z" transform="translate(0 -6.46)"/><path d="M269.11,230c-9.05-18.75-34.92-14-74.6,4.85-2.38,1.13-7.6,5.18-8.31,7.71C180.71,262,159.33,345,140,366c-5,7.33,17.14-4,20.14-13.34,1.66-5.16,3.67,17.34,29,10.67s89.67-55.33,43.45-78C232.56,285.35,281.23,255.12,269.11,230Zm-38.64,70.92c-1.69,25.41-53,45.08-53,45.08l11.69-39.82S231.8,281,230.47,300.94Zm13-57.59c-.67,19-50.67,40.33-50.67,40.33l9.33-35.33S244.11,224.35,243.45,243.35Z" transform="translate(0 -6.46)"/><path d="M323.37,250.84c-14.83-9.31-37.71.43-51.1,21.76s-18.07,49.7-3.24,59,43.57-4,57-25.3S338.21,260.15,323.37,250.84Zm-9.57,45.08c-7.94,12.65-24.19,25.52-34.46,17.89-8.34-6.2-1.53-20.63,7.45-32.57,8.61-11.45,17.91-18.79,26.72-14.68C323.52,271.23,321.74,283.27,313.8,295.92Z" transform="translate(0 -6.46)"/><path d="M356.77,235.8s-28,147.29-42.14,166c26.59-7.5,43.61-96.57,43.61-96.57s61.4-14.67,70.06-57.67c7.1-35.23-44.48-25-63.34-20.2A11.3,11.3,0,0,0,356.77,235.8Zm52.53,14.39C403.75,275.37,360,287.87,360,287.87L366.1,245S413.64,230.52,409.3,250.19Z" transform="translate(0 -6.46)"/></g></svg>